<svg xmlns="http://www.w3.org/2000/svg" width="80" height="80"><path fill="#482857" d="M45.714 61.384v-8.482c0-.804-.625-1.473-1.429-1.473h-8.571c-.804 0-1.429.67-1.429 1.473v8.482c0 .804.625 1.473 1.429 1.473h8.571c.804 0 1.429-.67 1.429-1.473zm-.089-16.696.804-20.491a1.08 1.08 0 0 0-.446-.848c-.268-.223-.67-.491-1.071-.491h-9.821c-.402 0-.804.268-1.071.491-.313.223-.446.67-.446.938l.759 20.402c0 .58.67 1.027 1.518 1.027h8.259c.804 0 1.473-.446 1.518-1.027zM45 2.991l34.286 62.857c.982 1.741.938 3.884-.089 5.625s-2.902 2.813-4.911 2.813H5.715c-2.009 0-3.884-1.071-4.911-2.813s-1.071-3.884-.089-5.625L35.001 2.991c.982-1.83 2.902-2.991 5-2.991s4.018 1.161 5 2.991z"/></svg>
