<svg width="111" height="40" viewBox="0 0 111 40" fill="none" xmlns="http://www.w3.org/2000/svg"><path fill-rule="evenodd" clip-rule="evenodd" d="M22.5259 18.8868C24.215 18.8868 25.428 18.5298 26.1651 17.8157C26.9021 17.1017 27.3013 15.9155 27.3628 14.2572C27.4242 12.7524 27.4549 11.1516 27.4549 9.45489C27.4549 7.75816 27.4242 6.14203 27.3628 4.60653C27.3013 2.96353 26.9021 1.78503 26.1651 1.07102C25.428 0.357006 24.215 0 22.5259 0C20.8369 0 19.6123 0.357006 18.8522 1.07102C18.0921 1.78503 17.6967 2.96353 17.666 4.60653C17.6353 6.11132 17.62 7.71977 17.62 9.43186L17.6202 9.79715C17.6222 11.3732 17.6375 12.8599 17.666 14.2572C17.6967 15.9155 18.0921 17.1017 18.8522 17.8157C19.6123 18.5298 20.8369 18.8868 22.5259 18.8868ZM3.91555 18.6564V12.9904L3.27063 3.27063H3.86948L4.85989 13.2207L6.26488 18.6564H9.97313L11.4012 13.2207L12.3685 3.27063H12.9904L12.3225 12.9904V18.6564H15.7774V0.230326H10.2495L8.70633 7.20921L8.42994 15.6161H7.83109L7.53167 7.20921L6.01152 0.230326H0.460653V18.6564H3.91555ZM21.1209 14.9021C21.1516 15.6852 21.62 16.0768 22.5259 16.0768C23.4165 16.0768 23.8772 15.6852 23.9079 14.9021C23.9386 14.119 23.9655 13.2591 23.9885 12.3225C24.0115 11.3858 24.023 10.4223 24.023 9.43186C24.023 8.44146 24.0115 7.47793 23.9885 6.54127C23.9655 5.60461 23.9386 4.74472 23.9079 3.96161C23.8772 3.19386 23.4165 2.80998 22.5259 2.80998C21.62 2.80998 21.1516 3.19386 21.1209 3.96161C21.0902 4.74472 21.0672 5.60461 21.0518 6.54127C21.0365 7.47793 21.0288 8.44146 21.0288 9.43186C21.0288 10.4223 21.0365 11.3858 21.0518 12.3225C21.0672 13.2591 21.0902 14.119 21.1209 14.9021ZM33.9731 18.6564C35.7083 18.6564 36.9597 18.2879 37.7274 17.5509C38.4952 16.8138 38.8944 15.6008 38.9251 13.9117C38.9559 12.8369 38.975 11.8196 38.9827 10.8599C38.9904 9.90019 38.9904 8.9405 38.9827 7.98081C38.975 7.02111 38.9559 6.01152 38.9251 4.95202C38.8944 3.26296 38.4952 2.05374 37.7274 1.32438C36.9597 0.59501 35.7083 0.230326 33.9731 0.230326H29.2975V18.6564H33.9731ZM32.7524 15.6161H33.9731C34.9405 15.6161 35.4395 15.1862 35.4702 14.3263C35.5624 11.0557 35.5624 7.79271 35.4702 4.53743C35.4395 3.6929 34.9405 3.27063 33.9731 3.27063H32.7524V15.6161ZM48.7831 18.6564V15.6161H44.2687V10.8023H48.5528V7.762H44.2687V3.27063H48.7831V0.230326H40.8138V18.6564H48.7831ZM53.62 12.4376V18.6564H50.1651V0.230326H54.6104C56.3301 0.230326 57.5701 0.579654 58.3301 1.27831C59.0902 1.97697 59.501 3.12476 59.5624 4.72169C59.5777 5.15163 59.5892 5.52783 59.5969 5.85029C59.6046 6.17274 59.6046 6.4952 59.5969 6.81766C59.5892 7.14012 59.5777 7.51631 59.5624 7.94626C59.5317 8.94434 59.3628 9.762 59.0557 10.3992C58.7486 11.0365 58.2802 11.524 57.6507 11.8618L59.8157 18.6564H56.1535L54.4031 12.4376H53.62ZM54.6104 9.39731H53.62V3.27063H54.6104C55.5624 3.27063 56.0614 3.6929 56.1075 4.53743C56.1843 5.73512 56.1843 6.93282 56.1075 8.13052C56.0614 8.97505 55.5624 9.39731 54.6104 9.39731ZM64.238 11.5854L64.5374 18.6564H61.1977V0.230326H66.1958L67.5777 6.10365L68.8445 15.6161H69.4434L68.7985 8.13052L68.5221 0.230326H71.8618V18.6564H66.6104L65.2284 12.6219L64.2841 3.2476H63.6392L64.238 11.5854ZM3.54702 39.7697L3.93858 35.9232H6.61036L7.00192 39.7697H10.5489L7.99232 21.3436H2.55662L0 39.7697H3.54702ZM4.26104 32.8829H6.28791L5.87332 28.8061L5.59693 24.3839H4.95202L4.67562 28.8061L4.26104 32.8829ZM15.3858 39.7697V33.5509H16.1689L17.9194 39.7697H21.5816L19.4165 32.975C20.0461 32.6372 20.5144 32.1497 20.8215 31.5125C21.1286 30.8752 21.2975 30.0576 21.3282 29.0595C21.3436 28.6296 21.3551 28.2534 21.3628 27.9309C21.3704 27.6084 21.3704 27.286 21.3628 26.9635C21.3551 26.6411 21.3436 26.2649 21.3282 25.8349C21.2668 24.238 20.856 23.0902 20.096 22.3916C19.3359 21.6929 18.096 21.3436 16.3762 21.3436H11.9309V39.7697H15.3858ZM15.3858 30.5106H16.3762C17.3282 30.5106 17.8273 30.0883 17.8733 29.2438C17.9501 28.0461 17.9501 26.8484 17.8733 25.6507C17.8273 24.8061 17.3282 24.3839 16.3762 24.3839H15.3858V30.5106ZM28.929 39.7697V24.3839H31.8772V21.3436H22.5029V24.3839H25.4741V39.7697H28.929ZM46.8484 38.929C46.096 39.643 44.8983 40 43.2553 40C42.1036 40 41.1785 39.8426 40.4798 39.5278C39.7812 39.2131 39.2706 38.7178 38.9482 38.0422C38.6257 37.3666 38.4415 36.476 38.3954 35.3704C38.38 34.7255 38.3647 33.9923 38.3493 33.1708C38.334 32.3493 38.3263 31.4971 38.3263 30.6142C38.3263 29.7313 38.334 28.8829 38.3493 28.0691C38.3647 27.2553 38.38 26.5413 38.3954 25.9271C38.4415 24.7601 38.6296 23.8234 38.9597 23.1171C39.2898 22.4107 39.8042 21.9002 40.5029 21.5854C41.2015 21.2706 42.119 21.1132 43.2553 21.1132C44.8676 21.1132 46.0422 21.4702 46.7793 22.1843C47.5163 22.8983 47.9386 24.0768 48.0461 25.7198C48.0768 26.0729 48.0921 26.4952 48.0921 26.9866C48.0921 27.4779 48.0768 27.9002 48.0461 28.2534H44.5912C44.6219 27.8234 44.6372 27.2937 44.6372 26.6641C44.6372 26.0345 44.6219 25.5048 44.5912 25.0749C44.5451 24.3071 44.0998 23.9232 43.2553 23.9232C42.3647 23.9232 41.8964 24.3071 41.8503 25.0749C41.7889 26.1497 41.7466 27.3321 41.7236 28.6219C41.7006 29.9117 41.7006 31.1977 41.7236 32.4798C41.7466 33.762 41.7889 34.9405 41.8503 36.0154C41.8964 36.7985 42.3647 37.19 43.2553 37.19C43.7006 37.19 44.0537 37.0902 44.3148 36.8906C44.5758 36.691 44.7217 36.3992 44.7524 36.0154C44.7678 35.8311 44.7793 35.5969 44.7869 35.3129C44.7946 35.0288 44.7946 34.7409 44.7869 34.4491C44.7793 34.1574 44.7678 33.9271 44.7524 33.7582H43.4856V30.7639H48.1152C48.1459 31.4702 48.1574 32.238 48.1497 33.0672C48.142 33.8964 48.1228 34.6641 48.0921 35.3704C48.0154 37.0288 47.6008 38.215 46.8484 38.929ZM52.6296 39.7697L53.0211 35.9232H55.6929L56.0845 39.7697H59.6315L57.0749 21.3436H51.6392L49.0825 39.7697H52.6296ZM53.3436 32.8829H55.3704L54.9559 28.8061L54.6795 24.3839H54.0345L53.7582 28.8061L53.3436 32.8829ZM69.0058 39.7697V36.7294H64.4683V21.3436H61.0134V39.7697H69.0058ZM78.38 36.7294V39.7697H70.3877V21.3436H73.8426V36.7294H78.38ZM87.7313 39.7697V36.7294H83.2169V31.9155H87.501V28.8752H83.2169V24.3839H87.7313V21.3436H79.762V39.7697H87.7313ZM92.5681 33.5509V39.7697H89.1132V21.3436H93.5585C95.2783 21.3436 96.5182 21.6929 97.2783 22.3916C98.0384 23.0902 98.4491 24.238 98.5106 25.8349C98.5259 26.2649 98.5374 26.6411 98.5451 26.9635C98.5528 27.286 98.5528 27.6084 98.5451 27.9309C98.5374 28.2534 98.5259 28.6296 98.5106 29.0595C98.4798 30.0576 98.3109 30.8752 98.0038 31.5125C97.6967 32.1497 97.2284 32.6372 96.5988 32.975L98.7639 39.7697H95.1017L93.3512 33.5509H92.5681ZM93.5585 30.5106H92.5681V24.3839H93.5585C94.5106 24.3839 95.0096 24.8061 95.0557 25.6507C95.1324 26.8484 95.1324 28.0461 95.0557 29.2438C95.0096 30.0883 94.5106 30.5106 93.5585 30.5106ZM106.595 35.3704V39.7697H103.14V35.3704L102.887 34.334L99.6852 21.3436H103.209L104.2 25.8119L104.545 31.2246H105.19L105.536 25.8119L106.526 21.3436H110.05L106.848 34.3109L106.595 35.3704Z" fill="#ffffff"/></svg>
